<mxfile host="app.diagrams.net" modified="2023-04-17T19:06:12.472Z" agent="Mozilla/5.0 (Windows NT 10.0; Win64; x64) AppleWebKit/537.36 (KHTML, like Gecko) Chrome/112.0.0.0 Safari/537.36" etag="oo42Rt6wMzuG-ZKiP5_y" version="21.1.4" type="github">
  <diagram name="Página-1" id="QBU8__he_7DDf32S2h9b">
    <mxGraphModel dx="2261" dy="788" grid="1" gridSize="10" guides="1" tooltips="1" connect="1" arrows="1" fold="1" page="1" pageScale="1" pageWidth="827" pageHeight="1169" math="0" shadow="0">
      <root>
        <mxCell id="0" />
        <mxCell id="1" parent="0" />
        <mxCell id="bTLom7ZC6KW94clvSrh4-2" style="edgeStyle=orthogonalEdgeStyle;rounded=0;orthogonalLoop=1;jettySize=auto;html=1;" edge="1" parent="1" source="bTLom7ZC6KW94clvSrh4-1">
          <mxGeometry relative="1" as="geometry">
            <mxPoint x="830" y="395" as="targetPoint" />
          </mxGeometry>
        </mxCell>
        <mxCell id="bTLom7ZC6KW94clvSrh4-3" style="edgeStyle=orthogonalEdgeStyle;rounded=0;orthogonalLoop=1;jettySize=auto;html=1;exitX=1;exitY=0.5;exitDx=0;exitDy=0;exitPerimeter=0;" edge="1" parent="1" source="bTLom7ZC6KW94clvSrh4-1">
          <mxGeometry relative="1" as="geometry">
            <mxPoint x="830" y="395" as="targetPoint" />
          </mxGeometry>
        </mxCell>
        <mxCell id="bTLom7ZC6KW94clvSrh4-1" value="" style="line;strokeWidth=2;html=1;" vertex="1" parent="1">
          <mxGeometry y="390" width="820" height="10" as="geometry" />
        </mxCell>
        <mxCell id="bTLom7ZC6KW94clvSrh4-4" value="" style="shape=flexArrow;endArrow=classic;html=1;rounded=0;" edge="1" parent="1">
          <mxGeometry width="50" height="50" relative="1" as="geometry">
            <mxPoint x="440" y="350" as="sourcePoint" />
            <mxPoint x="440" y="220" as="targetPoint" />
            <Array as="points">
              <mxPoint x="440" y="280" />
            </Array>
          </mxGeometry>
        </mxCell>
        <mxCell id="bTLom7ZC6KW94clvSrh4-5" value="Actor" style="shape=umlActor;verticalLabelPosition=bottom;verticalAlign=top;html=1;direction=east;" vertex="1" parent="1">
          <mxGeometry x="390" y="80" width="90" height="110" as="geometry" />
        </mxCell>
        <mxCell id="bTLom7ZC6KW94clvSrh4-6" value="&lt;span style=&quot;color: rgb(119, 119, 123); font-family: &amp;quot;Open Sans&amp;quot;, Arial, sans-serif; font-size: 13px; font-style: normal; font-variant-ligatures: normal; font-variant-caps: normal; font-weight: 400; letter-spacing: normal; orphans: 2; text-align: center; text-indent: 0px; text-transform: none; widows: 2; word-spacing: 0px; -webkit-text-stroke-width: 0px; background-color: rgb(245, 245, 245); text-decoration-thickness: initial; text-decoration-style: initial; text-decoration-color: initial; float: none; display: inline !important;&quot;&gt;Ordem dos Solicitadores e dos Agentes de Execução © 2023 - Todos os Direitos Reservados&lt;/span&gt;" style="text;whiteSpace=wrap;html=1;" vertex="1" parent="1">
          <mxGeometry x="140" y="420" width="560" height="50" as="geometry" />
        </mxCell>
        <mxCell id="bTLom7ZC6KW94clvSrh4-7" value="segunda-feira09:00–18:00&lt;br&gt;terça-feira09:00–18:00&amp;nbsp; &amp;nbsp; &amp;nbsp; &amp;nbsp; &amp;nbsp; &amp;nbsp; &amp;nbsp; &amp;nbsp; &amp;nbsp; &amp;nbsp; &amp;nbsp; &amp;nbsp; &amp;nbsp; &amp;nbsp; &amp;nbsp; &amp;nbsp; &amp;nbsp; &amp;nbsp; &amp;nbsp; &amp;nbsp; &amp;nbsp; &amp;nbsp; &amp;nbsp; &amp;nbsp; &amp;nbsp; &amp;nbsp; &amp;nbsp; &amp;nbsp; &amp;nbsp; &amp;nbsp; &amp;nbsp; MAIL ///&amp;nbsp; &amp;nbsp;FACEBOOK /// YT&amp;nbsp;&lt;br&gt;quarta-feira09:00–18:00&lt;br&gt;quinta-feira09:00–18:00&lt;br&gt;sexta-feira09:00–18:00&lt;br&gt;sábadoEncerrado&lt;br&gt;domingoEncerrado" style="text;whiteSpace=wrap;html=1;" vertex="1" parent="1">
          <mxGeometry x="1" y="480" width="560" height="50" as="geometry" />
        </mxCell>
      </root>
    </mxGraphModel>
  </diagram>
</mxfile>
